<svg width="275" height="102" viewBox="0 0 275 102" fill="none" xmlns="http://www.w3.org/2000/svg">
<rect width="275" height="102" fill="#1E1E1E"/>
<path d="M-1.09673e-05 100V30.1818H25.0909V100H-1.09673e-05ZM12.5454 22.9091C9.1515 22.9091 6.24241 21.7879 3.81817 19.5455C1.39393 17.303 0.181808 14.6061 0.181808 11.4545C0.181808 8.30303 1.39393 5.60606 3.81817 3.36363C6.24241 1.12121 9.1515 0 12.5454 0C15.9697 0 18.8788 1.12121 21.2727 3.36363C23.697 5.60606 24.9091 8.30303 24.9091 11.4545C24.9091 14.6061 23.697 17.303 21.2727 19.5455C18.8788 21.7879 15.9697 22.9091 12.5454 22.9091Z" fill="white"/>
<path d="M98.3523 6.90909H123.625V66.5455C123.625 73.6364 121.928 79.7727 118.534 84.9545C115.17 90.1061 110.473 94.0909 104.443 96.9091C98.4129 99.697 91.4129 101.091 83.4432 101.091C75.4129 101.091 68.3826 99.697 62.3523 96.9091C56.322 94.0909 51.625 90.1061 48.2614 84.9545C44.928 79.7727 43.2614 73.6364 43.2614 66.5455V6.90909H68.5341V64.3636C68.5341 67.2424 69.1704 69.8182 70.4432 72.0909C71.7159 74.3333 73.4735 76.0909 75.7159 77.3636C77.9886 78.6364 80.5644 79.2727 83.4432 79.2727C86.3523 79.2727 88.928 78.6364 91.1704 77.3636C93.4129 76.0909 95.1704 74.3333 96.4432 72.0909C97.7159 69.8182 98.3523 67.2424 98.3523 64.3636V6.90909Z" fill="white"/>
<path d="M194.068 100L209.523 6.90909H274.977L271.523 27.2727H231.341L228.795 43.2727H264.977L261.523 63.6364H225.341L219.341 100H194.068Z" fill="white"/>
<path d="M123.216 27.2727V6.90909H204.125V27.2727H176.125V100H151.216V27.2727H123.216Z" fill="white"/>
</svg>
